<svg width="44" height="44" viewBox="0 0 44 44" fill="none" xmlns="http://www.w3.org/2000/svg">
<path d="M3.66667 15.5833V25.6666" stroke="#AC3948" stroke-width="1.5" stroke-linecap="round"/>
<path d="M34.8333 21.0833V30.4799C34.8333 32.3279 33.9103 34.0581 32.2936 34.9535C29.6016 36.4443 25.2927 38.4999 22 38.4999C18.7073 38.4999 14.3985 36.4443 11.7064 34.9535C10.0898 34.0581 9.16667 32.3279 9.16667 30.4799V21.0833" stroke="#AC3948" stroke-width="1.5" stroke-linecap="round"/>
<path d="M17.935 6.41602C20.5402 5.19466 23.4597 5.19466 26.0649 6.41602L38.3321 12.1672C41.0004 13.4182 41.0004 17.7486 38.3321 18.9996L26.065 24.7506C23.4598 25.972 20.5403 25.972 17.9351 24.7506L5.66794 18.9995C2.99958 17.7485 2.99959 13.4181 5.66795 12.1671L17.935 6.41602Z" stroke="white" stroke-width="1.5"/>
</svg>
