<svg width="44" height="44" viewBox="0 0 44 44" fill="none" xmlns="http://www.w3.org/2000/svg">
<path d="M3.66666 20.1667H40.3333" stroke="#AC3948" stroke-width="1.5" stroke-linecap="round"/>
<path opacity="0.5" d="M34.8333 40.3333V37.5833M9.16666 40.3333V37.5833" stroke="white" stroke-width="1.5" stroke-linecap="round"/>
<path d="M3.66666 18.3334C3.66666 11.4195 3.66666 7.96252 5.81454 5.81463C7.96242 3.66675 11.4194 3.66675 18.3333 3.66675H25.6667C32.5806 3.66675 36.0376 3.66675 38.1854 5.81463C40.3333 7.96252 40.3333 11.4195 40.3333 18.3334V22.0001C40.3333 28.914 40.3333 32.371 38.1854 34.5189C36.0376 36.6667 32.5806 36.6667 25.6667 36.6667H18.3333C11.4194 36.6667 7.96242 36.6667 5.81454 34.5189C3.66666 32.371 3.66666 28.914 3.66666 22.0001V18.3334Z" stroke="white" stroke-width="1.5"/>
<path d="M16.5 28.4167H27.5" stroke="white" stroke-width="1.5" stroke-linecap="round"/>
<path d="M16.5 11.9167H27.5" stroke="white" stroke-width="1.5" stroke-linecap="round"/>
</svg>
