<svg width="44" height="44" viewBox="0 0 44 44" fill="none" xmlns="http://www.w3.org/2000/svg">
<path d="M22 29.3333V34.8333" stroke="#AC3948" stroke-width="1.5" stroke-linecap="round"/>
<path d="M34.8333 9.16675L36.5725 9.74646C38.3876 10.3515 39.2951 10.654 39.8142 11.3742C40.3333 12.0944 40.3333 13.0511 40.3332 14.9644L40.3332 15.0973C40.3332 16.6754 40.3332 17.4644 39.9533 18.1099C39.5735 18.7555 38.8838 19.1387 37.5043 19.905L32.0833 22.9167" stroke="#AC3948" stroke-width="1.5"/>
<path d="M9.16655 9.16675L7.4274 9.74646C5.6123 10.3515 4.70475 10.654 4.18567 11.3742C3.66658 12.0944 3.66661 13.0511 3.66666 14.9644L3.66666 15.0973C3.6667 16.6754 3.66673 17.4644 4.04657 18.1099C4.42642 18.7555 5.11614 19.1387 6.49558 19.905L11.9165 22.9167" stroke="#AC3948" stroke-width="1.5"/>
<path d="M22.0003 29.3334C11.4404 29.3334 9.56968 18.8092 9.23828 10.4619C9.1461 8.14004 9.10001 6.97908 9.97216 5.90494C10.8443 4.8308 11.8881 4.65468 13.9758 4.30244C16.0366 3.95474 18.7304 3.66675 22.0003 3.66675C25.2701 3.66675 27.9639 3.95474 30.0247 4.30244C32.1124 4.65468 33.1562 4.8308 34.0284 5.90494C34.9005 6.97908 34.8544 8.14004 34.7623 10.4619C34.4309 18.8092 32.5602 29.3334 22.0003 29.3334Z" stroke="white" stroke-width="1.5"/>
<path d="M28.4167 40.3333H15.5833L16.2053 37.2238C16.3766 36.3668 17.1291 35.75 18.003 35.75H25.997C26.871 35.75 27.6234 36.3668 27.7948 37.2238L28.4167 40.3333Z" stroke="white" stroke-width="1.5" stroke-linecap="round" stroke-linejoin="round"/>
<path d="M20.4342 11.0414C21.1309 9.79162 21.4792 9.16675 22 9.16675C22.5208 9.16675 22.8691 9.79162 23.5658 11.0414L23.746 11.3647C23.944 11.7198 24.0429 11.8974 24.1973 12.0145C24.3516 12.1317 24.5438 12.1752 24.9283 12.2622L25.2783 12.3414C26.6311 12.6475 27.3075 12.8005 27.4684 13.318C27.6293 13.8355 27.1682 14.3747 26.2459 15.4532L26.0073 15.7322C25.7453 16.0387 25.6142 16.1919 25.5553 16.3815C25.4963 16.5711 25.5161 16.7755 25.5558 17.1844L25.5918 17.5567C25.7313 18.9956 25.801 19.715 25.3797 20.0349C24.9584 20.3547 24.325 20.0631 23.0584 19.4799L22.7307 19.329C22.3707 19.1633 22.1908 19.0804 22 19.0804C21.8092 19.0804 21.6293 19.1633 21.2693 19.329L20.9416 19.4799C19.675 20.0631 19.0416 20.3547 18.6203 20.0349C18.199 19.715 18.2687 18.9956 18.4082 17.5567L18.4442 17.1844C18.4839 16.7755 18.5037 16.5711 18.4447 16.3815C18.3858 16.1919 18.2547 16.0387 17.9927 15.7322L17.7541 15.4532C16.8318 14.3747 16.3707 13.8355 16.5316 13.318C16.6925 12.8005 17.3689 12.6475 18.7217 12.3414L19.0717 12.2622C19.4562 12.1752 19.6484 12.1317 19.8027 12.0145C19.9571 11.8974 20.056 11.7198 20.254 11.3647L20.4342 11.0414Z" stroke="white" stroke-width="1.5"/>
<path d="M33 40.3333H11" stroke="#AC3948" stroke-width="1.5" stroke-linecap="round"/>
</svg>
