<svg width="44" height="44" viewBox="0 0 44 44" fill="none" xmlns="http://www.w3.org/2000/svg">
<path d="M22 35.3097L17.8514 39.2871C17.2573 39.8566 16.9602 40.1414 16.7086 40.24C16.1354 40.4646 15.4995 40.2724 15.1979 39.7834C15.0656 39.5688 15.0243 39.1818 14.9419 38.4077C14.8953 37.9706 14.872 37.7521 14.8013 37.5691C14.6431 37.1593 14.3106 36.8406 13.8832 36.6889C13.6923 36.6211 13.4644 36.5988 13.0085 36.5542C12.2011 36.4751 11.7973 36.4356 11.5735 36.3087C11.0635 36.0196 10.863 35.4099 11.0973 34.8603C11.2001 34.6191 11.4971 34.3343 12.0913 33.7648L14.8013 31.1666L16.7086 29.2593" stroke="white" stroke-width="1.5"/>
<path d="M22 35.3099L26.1486 39.2872C26.7427 39.8568 27.0398 40.1416 27.2914 40.2401C27.8646 40.4647 28.5005 40.2725 28.8021 39.7835C28.9344 39.5689 28.9757 39.1819 29.0581 38.4078C29.1047 37.9708 29.128 37.7522 29.1987 37.5692C29.3569 37.1594 29.6894 36.8407 30.1168 36.689C30.3077 36.6212 30.5356 36.5989 30.9915 36.5543C31.7989 36.4752 32.2027 36.4357 32.4265 36.3088C32.9365 36.0197 33.137 35.41 32.9027 34.8604C32.7999 34.6193 32.5029 34.3345 31.9087 33.7649L29.1987 31.1667L27.5 29.468" stroke="white" stroke-width="1.5"/>
<ellipse cx="22" cy="29.3333" rx="5.5" ry="5.5" stroke="#AC3948" stroke-width="1.5"/>
<path d="M31.7527 32.9923C35.3689 32.9539 37.3844 32.7273 38.7224 31.3892C40.3334 29.7783 40.3334 27.1855 40.3334 22.0001V14.6667C40.3334 9.4813 40.3334 6.88857 38.7224 5.27766C37.1115 3.66675 34.5188 3.66675 29.3334 3.66675L14.6667 3.66675C9.48124 3.66675 6.88851 3.66675 5.2776 5.27766C3.66669 6.88858 3.66669 9.4813 3.66669 14.6667L3.66669 22.0001C3.66669 27.1855 3.66669 29.7783 5.2776 31.3892C6.6863 32.7979 8.84581 32.9747 12.8334 32.9969" stroke="white" stroke-width="1.5"/>
<path d="M16.5 11L27.5 11" stroke="#AC3948" stroke-width="1.5" stroke-linecap="round"/>
<path d="M12.8333 17.4167H31.1667" stroke="#AC3948" stroke-width="1.5" stroke-linecap="round"/>
</svg>
