<svg width="32" height="32" viewBox="0 0 32 32" fill="none" xmlns="http://www.w3.org/2000/svg">
<path d="M2.66699 15.9999C2.66699 10.9716 2.66699 8.45745 4.22909 6.89535C5.79119 5.33325 8.30534 5.33325 13.3337 5.33325H18.667C23.6953 5.33325 26.2095 5.33325 27.7716 6.89535C29.3337 8.45745 29.3337 10.9716 29.3337 15.9999C29.3337 21.0282 29.3337 23.5424 27.7716 25.1045C26.2095 26.6666 23.6953 26.6666 18.667 26.6666H13.3337C8.30534 26.6666 5.79119 26.6666 4.22909 25.1045C2.66699 23.5424 2.66699 21.0282 2.66699 15.9999Z" stroke="#29477A" stroke-width="1.5"/>
<path d="M8 10.6667L10.8785 13.0655C13.3274 15.1062 14.5518 16.1266 16 16.1266C17.4482 16.1266 18.6726 15.1062 21.1215 13.0655L24 10.6667" stroke="#AC3948" stroke-width="1.5" stroke-linecap="round"/>
</svg>
