<svg width="32" height="32" viewBox="0 0 32 32" fill="none" xmlns="http://www.w3.org/2000/svg">
<path d="M17.4492 28.517L18.0946 28.899L18.0946 28.899L17.4492 28.517ZM18.172 27.2959L17.5266 26.9138L17.5266 26.9138L18.172 27.2959ZM13.8286 27.2959L13.1832 27.6779L13.1832 27.6779L13.8286 27.2959ZM14.5514 28.517L15.1968 28.135L15.1968 28.135L14.5514 28.517ZM3.17446 21.218L3.86737 20.931L3.86737 20.931L3.17446 21.218ZM10.3864 25.322L10.3735 26.0719L10.3735 26.0719L10.3864 25.322ZM6.78244 24.8259L6.49542 25.5189L6.49542 25.5189L6.78244 24.8259ZM28.8262 21.218L29.5191 21.505L29.5191 21.505L28.8262 21.218ZM21.6142 25.322L21.6012 24.5721L21.6012 24.5721L21.6142 25.322ZM25.2182 24.8259L25.5052 25.5189L25.5052 25.5189L25.2182 24.8259ZM26.1503 3.64915L25.7584 4.28863L25.7584 4.28863L26.1503 3.64915ZM28.3513 5.85009L28.9907 5.45822L28.9907 5.45822L28.3513 5.85009ZM5.85033 3.64915L5.45846 3.00967L5.45846 3.00967L5.85033 3.64915ZM3.64939 5.85009L3.00991 5.45822L3.00991 5.45822L3.64939 5.85009ZM12.5374 25.6132L12.9145 24.9649L12.9145 24.9649L12.5374 25.6132ZM17.4492 28.517L18.0946 28.899L18.8174 27.6779L18.172 27.2959L17.5266 26.9138L16.8038 28.135L17.4492 28.517ZM13.8286 27.2959L13.1832 27.6779L13.906 28.899L14.5514 28.517L15.1968 28.135L14.474 26.9138L13.8286 27.2959ZM17.4492 28.517L16.8038 28.135C16.45 28.7327 15.5506 28.7327 15.1968 28.135L14.5514 28.517L13.906 28.899C14.8406 30.4781 17.16 30.4781 18.0946 28.899L17.4492 28.517ZM14.0003 2.66675V3.41675H18.0003V2.66675V1.91675H14.0003V2.66675ZM29.3337 14.0001H28.5837V15.3334H29.3337H30.0837V14.0001H29.3337ZM2.66699 15.3334H3.41699V14.0001H2.66699H1.91699V15.3334H2.66699ZM2.66699 15.3334H1.91699C1.91699 16.8763 1.91659 18.071 1.98217 19.0322C2.0482 20.0001 2.18365 20.7858 2.48155 21.505L3.17446 21.218L3.86737 20.931C3.6578 20.425 3.53951 19.8216 3.47869 18.9301C3.4174 18.0318 3.41699 16.8968 3.41699 15.3334H2.66699ZM10.3864 25.322L10.3994 24.5721C8.72546 24.5433 7.80519 24.4378 7.06945 24.133L6.78244 24.8259L6.49542 25.5189C7.5205 25.9435 8.69977 26.0431 10.3735 26.0719L10.3864 25.322ZM3.17446 21.218L2.48155 21.505C3.2343 23.3223 4.67813 24.7661 6.49542 25.5189L6.78244 24.8259L7.06945 24.133C5.6197 23.5325 4.46788 22.3807 3.86737 20.931L3.17446 21.218ZM29.3337 15.3334H28.5837C28.5837 16.8968 28.5833 18.0318 28.522 18.9301C28.4611 19.8216 28.3429 20.425 28.1333 20.931L28.8262 21.218L29.5191 21.505C29.817 20.7858 29.9524 20.0001 30.0185 19.0322C30.0841 18.071 30.0837 16.8763 30.0837 15.3334H29.3337ZM21.6142 25.322L21.6271 26.0719C23.3008 26.0431 24.4802 25.9435 25.5052 25.5189L25.2182 24.8259L24.9312 24.133C24.1955 24.4378 23.2752 24.5433 21.6012 24.5721L21.6142 25.322ZM28.8262 21.218L28.1333 20.931C27.5328 22.3807 26.381 23.5325 24.9312 24.133L25.2182 24.8259L25.5052 25.5189C27.3225 24.7661 28.7664 23.3223 29.5191 21.505L28.8262 21.218ZM18.0003 2.66675V3.41675C20.1971 3.41675 21.7921 3.41754 23.0399 3.53618C24.2765 3.65376 25.0945 3.88178 25.7584 4.28863L26.1503 3.64915L26.5422 3.00967C25.603 2.43412 24.5283 2.17093 23.1819 2.04292C21.8466 1.91596 20.1681 1.91675 18.0003 1.91675V2.66675ZM29.3337 14.0001H30.0837C30.0837 11.8323 30.0845 10.1538 29.9575 8.81855C29.8295 7.47212 29.5663 6.39743 28.9907 5.45822L28.3513 5.85009L27.7118 6.24196C28.1186 6.90588 28.3466 7.7239 28.4642 8.96053C28.5829 10.2083 28.5837 11.8033 28.5837 14.0001H29.3337ZM26.1503 3.64915L25.7584 4.28863C26.5546 4.77649 27.2239 5.44584 27.7118 6.24197L28.3513 5.85009L28.9907 5.45822C28.3792 4.46026 27.5401 3.62121 26.5422 3.00967L26.1503 3.64915ZM14.0003 2.66675V1.91675C11.8326 1.91675 10.1541 1.91596 8.8188 2.04292C7.47236 2.17093 6.39767 2.43412 5.45846 3.00967L5.85033 3.64915L6.24221 4.28863C6.90613 3.88178 7.72414 3.65376 8.96078 3.53618C10.2086 3.41754 11.8035 3.41675 14.0003 3.41675V2.66675ZM2.66699 14.0001H3.41699C3.41699 11.8033 3.41778 10.2083 3.53642 8.96053C3.654 7.7239 3.88202 6.90588 4.28887 6.24196L3.64939 5.85009L3.00991 5.45822C2.43436 6.39743 2.17118 7.47212 2.04316 8.81855C1.9162 10.1538 1.91699 11.8323 1.91699 14.0001H2.66699ZM5.85033 3.64915L5.45846 3.00967C4.46051 3.62121 3.62146 4.46026 3.00991 5.45822L3.64939 5.85009L4.28887 6.24196C4.77673 5.44585 5.44609 4.77649 6.24221 4.28863L5.85033 3.64915ZM13.8286 27.2959L14.474 26.9138C14.2009 26.4524 13.9701 26.061 13.7477 25.7558C13.5161 25.438 13.261 25.1665 12.9145 24.9649L12.5374 25.6132L12.1603 26.2615C12.264 26.3218 12.3743 26.4181 12.5355 26.6393C12.706 26.8732 12.8957 27.1921 13.1832 27.6779L13.8286 27.2959ZM10.3864 25.322L10.3735 26.0719C10.9543 26.0819 11.3387 26.0893 11.6357 26.1222C11.9187 26.1535 12.0591 26.2027 12.1603 26.2615L12.5374 25.6132L12.9145 24.9649C12.5654 24.7619 12.1972 24.6752 11.8008 24.6313C11.4183 24.5889 10.9523 24.5817 10.3994 24.5721L10.3864 25.322ZM18.172 27.2959L18.8174 27.6779C19.1049 27.1921 19.2946 26.8732 19.4651 26.6393C19.6263 26.418 19.7366 26.3218 19.8403 26.2615L19.4632 25.6132L19.0861 24.9649C18.7396 25.1665 18.4845 25.438 18.2529 25.7558C18.0305 26.061 17.7997 26.4524 17.5266 26.9138L18.172 27.2959ZM21.6142 25.322L21.6012 24.5721C21.0483 24.5817 20.5823 24.5889 20.1998 24.6313C19.8034 24.6752 19.4352 24.7619 19.0861 24.9649L19.4632 25.6132L19.8403 26.2615C19.9415 26.2027 20.0819 26.1535 20.3649 26.1222C20.6619 26.0893 21.0463 26.0819 21.6271 26.0719L21.6142 25.322Z" fill="#29477A"/>
<path d="M10.667 12H21.3337" stroke="#AC3948" stroke-width="1.5" stroke-linecap="round"/>
<path d="M10.667 16.6667H18.0003" stroke="#AC3948" stroke-width="1.5" stroke-linecap="round"/>
</svg>
