<svg width="32" height="32" viewBox="0 0 32 32" fill="none" xmlns="http://www.w3.org/2000/svg">
<path d="M18.667 2.66675C18.667 2.66675 21.6003 2.93341 25.3337 6.66675C29.067 10.4001 29.3337 13.3334 29.3337 13.3334" stroke="#AC3948" stroke-width="1.5" stroke-linecap="round"/>
<path d="M18.9424 7.38086C18.9424 7.38086 20.2623 7.75798 22.2422 9.73788C24.2221 11.7178 24.5992 13.0377 24.5992 13.0377" stroke="#AC3948" stroke-width="1.5" stroke-linecap="round"/>
<path d="M13.3831 7.08815L14.2485 8.63872C15.0294 10.038 14.7159 11.8737 13.486 13.1037C13.486 13.1037 11.994 14.5956 14.699 17.3006C17.404 20.0055 18.8959 18.5136 18.8959 18.5136C20.1259 17.2837 21.9616 16.9702 23.3609 17.7511L24.9114 18.6165C27.0244 19.7957 27.274 22.7589 25.4167 24.6162C24.3007 25.7322 22.9335 26.6006 21.4222 26.6579C18.878 26.7543 14.5574 26.1104 10.2233 21.7763C5.88918 17.4422 5.24529 13.1216 5.34174 10.5774C5.39904 9.06605 6.26741 7.6989 7.38342 6.58289C9.24068 4.72563 12.2039 4.97517 13.3831 7.08815Z" stroke="#29477A" stroke-width="1.5" stroke-linecap="round"/>
</svg>
