<svg width="44" height="44" viewBox="0 0 44 44" fill="none" xmlns="http://www.w3.org/2000/svg">
<path d="M22 22H25.6667M22 11L25.6667 11M22 33H25.6667M22 27.5L27.5 27.5M22 16.5L27.5 16.5" stroke="#AC3948" stroke-width="1.5" stroke-linecap="round"/>
<path d="M29.3333 40.3334C25.8764 40.3334 24.1479 40.3334 23.0739 39.2595C22 38.1855 22 36.457 22 33.0001L22 11.0001C22 7.54312 22 5.81463 23.0739 4.74069C24.1479 3.66675 25.8764 3.66675 29.3333 3.66675L33 3.66675C36.457 3.66675 38.1855 3.66675 39.2594 4.74069C40.3333 5.81463 40.3333 7.54312 40.3333 11.0001V33.0001C40.3333 36.457 40.3333 38.1855 39.2594 39.2595C38.1855 40.3334 36.457 40.3334 33 40.3334H29.3333Z" stroke="white" stroke-width="1.5"/>
<path d="M3.66669 10.6331C3.66669 10.6331 5.72919 12.3747 9.16669 12.3747C12.6042 12.3747 14.6667 10.6331 14.6667 10.6331" stroke="#AC3948" stroke-width="1.5"/>
<path d="M11.0221 38.5497L10.4933 39.5545C10.2421 40.0319 9.72848 40.3334 9.16669 40.3334C8.60489 40.3334 8.09132 40.0319 7.84007 39.5545L7.31125 38.5497M11.0221 38.5497H7.31125M11.0221 38.5497L13.1855 34.4393C13.6961 33.4692 13.9513 32.9842 14.1399 32.4789C14.3624 31.8827 14.5158 31.2653 14.5974 30.6376C14.6667 30.1055 14.6667 29.5632 14.6667 28.4787L14.6667 10.6334L14.6667 8.89175C14.6667 6.00606 12.2043 3.66675 9.16669 3.66675C6.12912 3.66675 3.66669 6.00606 3.66669 8.89175L3.66669 10.6334L3.66669 28.4787C3.66669 29.5632 3.66669 30.1055 3.73593 30.6376C3.8176 31.2653 3.97102 31.8827 4.19346 32.4789C4.38203 32.9842 4.6373 33.4693 5.14784 34.4393L7.31125 38.5497" stroke="white" stroke-width="1.5"/>
</svg>
